<?xml version="1.0" standalone="no"?>
<!DOCTYPE svg PUBLIC "-//W3C//DTD SVG 20010904//EN"
 "http://www.w3.org/TR/2001/REC-SVG-20010904/DTD/svg10.dtd">
<svg version="1.0" xmlns="http://www.w3.org/2000/svg"
 width="600.000000pt" height="305.000000pt" viewBox="0 0 600.000000 305.000000"
 preserveAspectRatio="xMidYMid meet">

<g transform="translate(0.000000,305.000000) scale(0.100000,-0.100000)"
fill="#000000" stroke="none">
<path d="M277 2352 l-227 -227 0 -342 0 -343 247 -2 248 -3 5 -550 5 -550 644
-3 644 -2 111 110 112 110 180 0 179 0 52 -110 51 -110 595 0 596 0 131 125
132 125 71 -63 c38 -34 102 -90 141 -124 l71 -63 649 0 650 0 213 212 213 212
0 888 c0 646 -3 889 -11 894 -6 4 -306 8 -666 10 l-655 4 -249 -243 c-138
-133 -254 -243 -259 -245 -6 -2 -11 95 -12 245 l-3 248 -337 3 -336 2 -182
-250 c-100 -138 -185 -248 -189 -245 -3 4 -40 115 -82 248 l-77 242 -331 3
-330 2 -96 -127 c-53 -71 -100 -129 -105 -131 -5 -2 -11 57 -12 135 l-3 138
-775 3 -775 2 -228 -228z m1733 -127 l0 -305 -203 0 c-145 0 -206 -3 -215 -12
-9 -9 -12 -149 -12 -570 l0 -558 -280 0 -280 0 0 558 c0 421 -3 561 -12 570
-9 9 -78 12 -247 12 l-236 0 0 305 0 305 743 0 742 0 0 -305z m2082 -132 c3
-414 4 -428 22 -428 14 0 89 108 292 420 l272 420 288 -4 c159 -2 291 -5 293
-7 2 -2 -132 -206 -298 -454 -191 -285 -299 -455 -294 -463 4 -6 144 -183 312
-392 167 -209 309 -386 314 -392 7 -10 -57 -13 -314 -13 l-324 1 -260 329
c-161 204 -266 329 -275 327 -13 -2 -16 -47 -21 -302 -3 -165 -7 -312 -8 -327
l-1 -28 -280 0 -280 0 0 864 0 865 23 4 c12 2 138 5 279 6 l258 1 2 -427z
m-614 -825 l-3 -413 -178 559 c-98 307 -177 569 -175 582 2 14 82 133 178 266
l175 241 3 -412 c1 -226 1 -597 0 -823z m2462 372 l0 -860 -285 0 -285 0 0
860 0 860 285 0 285 0 0 -860z m-1445 673 c-3 -10 -84 -137 -178 -283 l-172
-265 -3 109 -3 109 178 173 c98 95 180 173 182 173 2 1 0 -7 -4 -16z m485
-693 c0 -192 -3 -350 -7 -350 -5 0 -66 72 -136 159 l-128 159 127 191 c70 105
131 191 136 191 4 0 8 -157 8 -350z m-581 -585 l222 -279 -178 -178 c-98 -98
-181 -178 -185 -178 -10 0 -248 211 -248 221 0 4 29 34 65 67 l65 59 0 175 c0
262 10 422 26 406 6 -7 112 -139 233 -293z m-519 -480 l-175 -175 -284 2 -283
3 182 173 183 172 276 0 276 0 -175 -175z m1293 52 c-70 -67 -153 -146 -184
-175 l-56 -52 -307 2 -307 3 166 173 167 172 325 0 325 0 -129 -123z"/>
</g>
</svg>
