<?xml version="1.0" encoding="iso-8859-1"?>
<!-- Uploaded to: SVG Repo, www.svgrepo.com, Generator: SVG Repo Mixer Tools -->
<svg fill="#000000" height="800px" width="800px" version="1.1" id="Capa_1" xmlns="http://www.w3.org/2000/svg" xmlns:xlink="http://www.w3.org/1999/xlink" 
	 viewBox="0 0 611.998 611.998" xml:space="preserve">
<g>
	<path d="M558.966,36.611c-2.262-12.984-13.533-22.459-26.712-22.459H473.47C468.872,5.722,459.928,0,449.649,0H162.344
		c-10.278,0-19.223,5.722-23.82,14.153H79.745c-13.178,0-24.448,9.477-26.712,22.457c-0.321,1.844-7.711,45.702,6.423,93.81
		c10.212,34.762,33.037,76.665,83.579,102.794c-8.308,20.734-18.496,43.587-30.985,68.809c-2.581,5.21-1.713,11.467,2.187,15.78
		c38.368,42.408,81.894,70.991,128.204,84.608c-0.087,1.015-0.155,2.037-0.155,3.074v1.795c0,13.716,7.699,25.625,19.006,31.667
		c1.725,22.022-3.296,58.062-15.082,86.621h-51.267c-11.385,0-20.613,9.229-20.613,20.613v45.204
		c0,11.385,9.227,20.613,20.613,20.613h222.109c11.385,0,20.613-9.229,20.613-20.613v-45.204c0-11.384-9.227-20.613-20.613-20.613
		h-51.269c-11.788-28.559-16.814-64.596-15.098-86.616C361.998,432.913,369.7,421,369.7,407.28v-1.795
		c0-1.037-0.068-2.057-0.155-3.072c46.311-13.617,89.837-42.2,128.204-84.61c3.9-4.313,4.768-10.57,2.187-15.78
		c-12.476-25.197-22.682-48.043-31.018-68.791c50.566-26.127,73.4-68.04,83.617-102.811
		C566.674,82.314,559.289,38.455,558.966,36.611z M111.966,116.729c-5.469-17.839-6.892-35.252-6.924-48.347h33.486
		c4.598,8.431,13.54,14.149,23.818,14.149c4.749,0,9.209-1.228,13.091-3.373c0.027,0.235,0.058,0.462,0.085,0.699
		c2.308,20.922,0.428,53.222-14.084,101.367C137.231,166.639,120.657,145.081,111.966,116.729z M221.779,336.822
		c-21.079,5.466-43.713-13.414-55.346-28.844c-2.849-3.777-5.362-7.562-4.125-12.537c0.725-2.921,2.817-5.341,4.453-7.808
		c7.139-10.773,13.056-22.442,18.26-34.257c10.911-24.765,19.178-50.609,25.311-76.959c4.628-19.883,7.603-39.982,11.447-60.017
		c5.331,33.095,3.995,67.329-2.574,100.134c-2.533,12.655-5.974,25.096-10.242,37.27c-5.312,15.154-11.889,31.074-20.959,44.699
		C197.425,312.758,208.225,326.51,221.779,336.822z M500.029,116.728c-8.705,28.378-25.303,49.954-49.548,64.541
		c-14.463-47.836-16.517-80.384-13.912-102.103c3.879,2.143,8.335,3.366,13.079,3.366c10.278,0,19.221-5.72,23.818-14.149h33.489
		C506.923,81.488,505.499,98.895,500.029,116.728z"/>
</g>
</svg>